<svg  viewBox="0 0 450 274" fill="none" xmlns="http://www.w3.org/2000/svg">
<path d="M287.88 289.28C295.8 288.92 303.6 287.84 311.4 285.92L449.28 251.96L311.4 218C303.6 216.08 295.68 215 287.88 214.64C293.16 208.88 297.96 202.52 302.16 195.56L375.6 73.9999L254.04 147.32C247.2 151.52 240.84 156.32 234.96 161.6C234.6 153.68 233.52 145.88 231.6 138.08L197.64 0.199951L163.68 138.08C161.76 145.88 160.68 153.8 160.32 161.6C154.56 156.32 148.2 151.52 141.24 147.32L19.68 73.88L93.12 195.44C97.32 202.28 102.12 208.64 107.4 214.52C99.48 214.88 91.68 215.96 83.88 217.88L-54 251.84L83.88 285.8C91.68 287.72 99.6 288.8 107.4 289.16C102.12 294.92 97.32 301.28 93.12 308.24L19.68 429.8L141.24 356.36C148.08 352.16 154.44 347.36 160.32 342.08C160.68 350 161.76 357.8 163.68 365.6L197.64 503.6L231.6 365.72C233.52 357.92 234.6 350 234.96 342.2C240.72 347.48 247.08 352.28 254.04 356.48L375.6 429.92L302.16 308.36C297.96 301.4 293.16 295.04 287.88 289.28Z" fill="#171717"/>
</svg>
