<svg viewBox="0 0 159 133" fill="none" xmlns="http://www.w3.org/2000/svg">
<path d="M156.074 69.1465C151.48 69.1465 138.575 70.7214 125.188 73.3463C136.65 65.6904 147.105 57.5096 150.386 54.2285C158.042 46.5726 158.042 34.1045 150.386 26.4486C142.731 18.7928 130.262 18.7928 122.607 26.4486C119.238 29.8172 110.838 40.5792 103.051 52.3473C105.895 38.4355 107.601 24.655 107.601 19.8427C107.601 8.99326 98.8078 0.199951 87.9583 0.199951C77.1089 0.199951 68.3155 8.99326 68.3155 19.8427C68.3155 24.48 69.9342 37.6043 72.6028 51.0787C64.947 39.6167 56.7661 29.161 53.485 25.8799C45.8292 18.2241 33.361 18.2241 25.7052 25.8799C18.0493 33.5358 18.0493 46.0039 25.7052 53.6598C29.1175 57.0721 40.1857 65.6904 52.1726 73.6088C38.3045 70.8089 24.5677 69.1028 19.843 69.1028C8.99351 69.1028 0.200195 77.8961 0.200195 88.7455C0.200195 99.595 8.99351 108.388 19.843 108.388C24.4365 108.388 37.4296 106.813 50.8164 104.145C39.617 111.669 29.5112 119.588 26.3176 122.781C18.6618 130.437 18.6618 142.905 26.3176 150.561C33.9735 158.217 46.4416 158.217 54.0975 150.561C57.2473 147.411 64.9032 137.656 72.2966 126.719C69.8467 139.537 68.3593 151.699 68.3593 156.117C68.3593 166.967 77.1526 175.76 88.0021 175.76C98.8515 175.76 107.645 166.967 107.645 156.117C107.645 151.567 106.07 138.793 103.489 125.537C111.013 136.737 118.932 146.843 122.125 150.036C129.781 157.692 142.249 157.692 149.905 150.036C157.561 142.38 157.561 129.912 149.905 122.256C146.799 119.15 137.306 111.713 126.588 104.407C139.449 106.901 151.699 108.345 156.117 108.345C166.967 108.345 175.76 99.5512 175.76 88.7018C175.76 77.8523 166.923 69.1465 156.074 69.1465Z" fill="#F6E6F9"/>
</svg>
