<svg  viewBox="0 0 152 135" fill="none" xmlns="http://www.w3.org/2000/svg">
<path d="M150.346 41.2187C142.934 23.7458 111.875 27.9522 80.9967 50.6381C77.5547 53.1712 74.2978 55.7898 71.1437 58.541C69.8584 54.6067 68.3702 50.6515 66.7026 46.7167C51.7232 11.4501 27.1907 -8.00731 11.868 3.2285C-3.42244 14.4732 -3.71137 52.158 11.2769 87.3922C20.3654 108.768 32.9626 124.325 44.897 130.763C46.5896 131.819 48.5237 132.628 50.6669 133.181C52.7925 133.799 54.8685 134.09 56.8627 134.046C70.4119 134.599 89.1929 127.615 107.908 113.902C138.753 91.2072 157.767 58.6593 150.346 41.2187Z" fill="#D8FDB8"/>
</svg>
