<svg  viewBox="0 0 1728 370" fill="none" xmlns="http://www.w3.org/2000/svg">
<path d="M-35.4758 283.217C-15.0473 260.235 13.4236 246.819 44.269 247.566C73.9556 248.285 103.862 254.449 133.463 256.747C171.253 259.682 209.749 260.982 247.585 257.886C317.397 252.174 387.098 237.521 455.525 223.442C531.335 207.844 605.754 189.488 680.084 168.09C721.529 156.158 761.699 144.581 804.928 141.352C847.139 138.198 889.42 141.773 931.648 141.955C983.968 142.18 1036.26 140.223 1087.65 129.423C1132.74 119.948 1191.69 105.151 1222.75 67.0347C1228.57 59.8982 1232.16 50.4297 1232.6 41.2349C1233.53 22.0474 1219 12.8978 1203.59 7.25961C1178.67 -1.85123 1145.02 1.64683 1122.23 15.3011C1096.61 30.6534 1086.96 58.6316 1093.22 87.1385C1104.27 137.546 1150.14 175.809 1193.13 199.451C1220.24 214.357 1249 226.244 1278.04 236.911C1367.28 269.699 1456.86 290.748 1549.97 310.223C1602.39 321.186 1655.03 331.162 1707.92 339.508C2004.76 386.342 1704.37 333.365 1974.09 367.653" stroke="#FEFAD5" stroke-width="3.6" stroke-linecap="round"/>
</svg>
