<svg viewBox="0 0 18 14" fill="none" xmlns="http://www.w3.org/2000/svg">
<path d="M17.5038 2.52051C17.5038 1.3736 16.574 0.443848 15.4271 0.443848H2.96714C1.82023 0.443848 0.890472 1.3736 0.890472 2.52051V11.6578C0.890472 12.8048 1.82023 13.7345 2.96714 13.7345H15.4271C16.574 13.7345 17.5038 12.8048 17.5038 11.6578V2.52051ZM15.8425 3.3761C15.8425 3.61897 15.7174 3.84471 15.5114 3.97343L10.2978 7.23195C9.62437 7.65283 8.76991 7.65283 8.09651 7.23195L2.88288 3.97343C2.67692 3.84471 2.55181 3.61897 2.55181 3.3761C2.55181 2.82284 3.16038 2.48554 3.62954 2.77877L8.09651 5.57062C8.76991 5.99149 9.62437 5.9915 10.2978 5.57062L14.7647 2.77877C15.2339 2.48554 15.8425 2.82284 15.8425 3.3761Z" fill="#171717"/>
</svg>
