<svg  viewBox="0 0 29 29" fill="none" xmlns="http://www.w3.org/2000/svg">
<path d="M26.1896 17.9081C24.5907 18.1365 23.0679 18.2888 21.469 17.9843C19.1848 17.5274 17.3575 16.3853 15.6824 14.9387C17.9666 15.091 19.9462 13.7205 21.3929 12.0454C23.1441 9.83735 24.1339 7.02019 23.4486 4.20304C22.8395 2.14728 21.2406 -0.213044 18.8803 0.015374C17.8905 0.0915134 17.662 1.2336 17.8143 2.14728C18.1189 3.97462 18.2711 5.57355 17.9666 7.40089C17.5098 9.60893 16.3677 11.3601 14.9972 13.0352C14.9972 11.2079 14.1596 9.53279 12.9414 8.23842C12.7891 8.16228 12.713 8.01 12.5607 7.85773C9.97196 5.57355 6.08886 4.20304 2.891 5.95424C1.36822 6.86791 -0.382989 8.31456 0.073847 10.218C0.302265 10.9794 1.21594 11.2079 1.97733 11.1317C3.80468 10.8272 5.55588 10.5226 7.38322 10.9033C9.36285 11.3601 11.0379 12.1215 12.5607 13.4159C12.6368 13.492 12.6368 13.5682 12.7891 13.6443C7.9162 14.1012 4.56607 19.3548 5.4036 24.0754C5.55588 25.0652 5.93658 25.9027 6.54569 26.7403C7.45936 27.9585 8.98215 29.1767 10.5049 28.4915C10.5811 28.4153 10.6572 28.3392 10.7334 28.2631C10.9618 27.9585 11.1141 27.5778 11.1141 27.1971C10.9618 25.0652 10.3527 22.8572 11.1141 20.7253C11.1141 20.6491 11.1141 20.4969 11.1141 20.4207C11.647 18.7456 12.4846 17.2229 13.7028 15.9285C13.7028 18.0604 14.921 19.9639 16.5961 21.3344C16.9768 21.6389 17.3575 21.9435 17.8143 22.1719C19.5655 23.0856 21.3929 23.7708 23.3725 23.6186C25.1998 23.4663 26.8749 22.6288 28.017 21.1821C28.55 20.4969 29.0068 19.6593 28.7022 18.7456C28.3215 17.7558 27.1033 17.6797 26.1896 17.9081Z" fill="#414141"/>
</svg>
