<svg viewBox="0 0 29 29" fill="none" xmlns="http://www.w3.org/2000/svg">
<path d="M25.1456 12.4955L14.4842 14.5155L16.5042 3.85407C16.7988 2.2829 15.908 0.732781 14.4 0.199707C12.892 0.732781 12.0012 2.2829 12.2958 3.85407L14.3158 14.5155L3.65436 12.4955C2.0832 12.2009 0.533074 13.0917 0 14.5997C0.533074 16.1077 2.0832 16.9985 3.65436 16.7039L14.3158 14.6839L12.2958 25.3453C12.0012 26.9165 12.892 28.4666 14.4 28.9997C15.908 28.4666 16.7988 26.9165 16.5042 25.3453L14.4842 14.6839L25.1456 16.7039C26.7168 16.9985 28.2669 16.1077 28.8 14.5997C28.2669 13.0917 26.7168 12.2009 25.1456 12.4955Z" fill="#414141"/>
</svg>
