<svg viewBox="0 0 29 43" fill="none" xmlns="http://www.w3.org/2000/svg">
<path d="M24.5842 5.01556C21.9828 2.41415 18.3759 0.799805 14.4 0.799805C6.44817 0.799805 0 7.24798 0 15.1998V42.0534H4.35413V16.5559C4.35413 11.0117 8.85586 6.50999 14.4 6.50999C17.1767 6.50999 19.6858 7.63542 21.5031 9.45272C23.3204 11.27 24.4459 13.7792 24.4459 16.5559V42.0534H28.8V15.1998C28.8 11.2239 27.1949 7.6262 24.5842 5.01556Z" fill="#414141"/>
<path d="M14.4 11.676C11.1344 11.676 8.49609 14.3235 8.49609 17.5799V42.0534H12.2783V18.5669C12.2783 17.3954 13.2284 16.436 14.4092 16.436C14.9996 16.436 15.5254 16.6758 15.9129 17.0633C16.3003 17.4507 16.5402 17.9765 16.5402 18.5669V42.0534H20.3224V17.5799C20.3224 15.9471 19.6582 14.4711 18.5881 13.401C17.5088 12.3402 16.0328 11.676 14.4 11.676Z" fill="#414141"/>
</svg>
