<svg viewBox="0 0 29 29" fill="none" xmlns="http://www.w3.org/2000/svg">
<path d="M16.1314 5.11284L23.7117 0.506701C26.6941 -1.30759 30.1073 2.1056 28.293 5.08799L23.6868 12.6682C23.0407 13.7287 23.0407 15.0624 23.6868 16.1311L28.293 23.7114C30.1073 26.6938 26.6941 30.107 23.7117 28.2927L16.1314 23.6865C15.071 23.0404 13.7372 23.0404 12.6686 23.6865L5.0883 28.2927C2.1059 30.107 -1.30728 26.6938 0.507007 23.7114L5.11315 16.1311C5.75934 15.0707 5.75934 13.7369 5.11315 12.6682L0.507007 5.08799C-1.30728 2.1056 2.1059 -1.30759 5.0883 0.506701L12.6686 5.11284C13.729 5.75903 15.0628 5.75903 16.1314 5.11284Z" fill="#414141"/>
</svg>
