<svg viewBox="0 0 29 30" fill="none" xmlns="http://www.w3.org/2000/svg">
<path d="M28.047 14.4456H18.6942C18.567 14.4456 18.4511 14.4198 18.343 14.3815C18.4263 14.3027 18.5231 14.234 18.6391 14.1834L27.223 10.4688C27.6046 10.3034 27.7802 9.861 27.6147 9.47941C27.4504 9.09783 27.0069 8.92224 26.6253 9.0877L18.0425 12.8022C17.9795 12.8293 17.9164 12.8382 17.8534 12.8518C17.8894 12.7989 17.9209 12.7426 17.9693 12.6942L24.5823 6.08119C24.8761 5.7874 24.8761 5.31015 24.5823 5.01749C24.2885 4.7237 23.8113 4.7237 23.5175 5.01749L16.9045 11.6305C16.8145 11.7205 16.7154 11.7847 16.6107 11.8331C16.6141 11.7183 16.6332 11.6023 16.6805 11.483L20.1238 2.78763C20.2768 2.40155 20.0877 1.96369 19.7017 1.81061C19.3156 1.65752 18.8777 1.84663 18.7246 2.23384L15.2814 10.9304C15.2566 10.9945 15.2172 11.044 15.1823 11.0992C15.1699 11.035 15.153 10.9743 15.153 10.9056V1.55284C15.153 1.13636 14.8165 0.799805 14.4 0.799805C13.9835 0.799805 13.647 1.13636 13.647 1.55284V10.9056C13.647 11.0328 13.6211 11.1487 13.5828 11.2568C13.5051 11.1735 13.4354 11.0767 13.3847 10.9607L9.67017 2.37679C9.5047 1.99521 9.06233 1.81962 8.68075 1.98508C8.29916 2.15055 8.12357 2.59402 8.28903 2.97448L12.0036 11.5573C12.0306 11.6215 12.0396 11.6834 12.0531 11.7464C12.0002 11.7104 11.9439 11.6789 11.8955 11.6305L5.28252 5.01749C4.98873 4.7237 4.51147 4.7237 4.21881 5.01749C3.92502 5.31127 3.92502 5.7874 4.21881 6.08119L10.8318 12.6942C10.9218 12.7842 10.986 12.8833 11.0344 12.988C10.9196 12.9846 10.8025 12.9655 10.6843 12.9182L1.98897 9.47491C1.60288 9.32183 1.16501 9.51093 1.01193 9.89814C0.858844 10.2842 1.04795 10.7221 1.43516 10.8752L10.1305 14.3173C10.1947 14.3432 10.2454 14.3815 10.2994 14.4153C10.2352 14.4276 10.1744 14.4456 10.1058 14.4456H0.753044C0.337692 14.4456 0 14.7822 0 15.1987C0 15.6152 0.336566 15.9517 0.753044 15.9517H10.1058C10.233 15.9517 10.3489 15.9765 10.4558 16.0159C10.3725 16.0947 10.2757 16.1633 10.1598 16.214L1.57699 19.9285C1.1954 20.094 1.01981 20.5364 1.18528 20.9179C1.35074 21.2995 1.79311 21.4751 2.1747 21.3097L10.7586 17.5951C10.8217 17.5681 10.8847 17.5602 10.9477 17.5456C10.9106 17.5996 10.8802 17.6548 10.8318 17.7043L4.21881 24.3173C3.92502 24.6111 3.92502 25.0872 4.21881 25.3821C4.51259 25.6759 4.98873 25.6759 5.28252 25.3821L11.8955 18.7691C11.9856 18.6791 12.0857 18.6149 12.1893 18.5665C12.1859 18.6802 12.1668 18.7973 12.1195 18.9155L8.67625 27.612C8.52317 27.9981 8.71226 28.4359 9.09947 28.589C9.48556 28.7421 9.92343 28.553 10.0765 28.1658L13.5186 19.4704C13.5445 19.4062 13.5828 19.3556 13.6177 19.3004C13.6301 19.3646 13.647 19.4254 13.647 19.494V28.8468C13.647 29.2621 13.9835 29.5998 14.4 29.5998C14.8165 29.5998 15.153 29.2621 15.153 28.8468V19.494C15.153 19.3668 15.1778 19.2509 15.2172 19.1428C15.2949 19.2261 15.3647 19.3229 15.4153 19.4389L19.1298 28.0217C19.2953 28.4033 19.7377 28.5789 20.1193 28.4134C20.5008 28.2479 20.6764 27.8045 20.511 27.424L16.7964 18.8412C16.7694 18.777 16.7604 18.7151 16.7469 18.6521C16.8009 18.6892 16.8561 18.7196 16.9045 18.768L23.5175 25.381C23.8113 25.6748 24.2874 25.6748 24.5823 25.381C24.8772 25.0872 24.8761 24.61 24.5823 24.3162L17.9693 17.7032C17.8793 17.6131 17.8151 17.5141 17.7667 17.4094C17.8815 17.4128 17.9975 17.4319 18.1168 17.4792L26.8122 20.9224C27.1983 21.0755 27.6361 20.8864 27.7892 20.4992C27.9423 20.1131 27.7532 19.6752 27.366 19.5222L18.6695 16.0789C18.6053 16.053 18.5546 16.0147 18.5006 15.981C18.5648 15.9686 18.6256 15.9517 18.6942 15.9517H28.047C28.4623 15.9517 28.8 15.6152 28.8 15.1987C28.8 14.7822 28.4634 14.4456 28.047 14.4456Z" fill="#414141"/>
</svg>
