<svg  viewBox="0 0 15 14" fill="none" xmlns="http://www.w3.org/2000/svg">
<path d="M12.7819 6.93885H14.181C14.181 3.35013 11.4717 0.643555 7.87805 0.643555V2.04266C10.7196 2.04266 12.7819 4.10145 12.7819 6.93885Z" fill="#171717"/>
<path d="M7.88613 4.84128C9.35729 4.84128 9.98479 5.46879 9.98479 6.93995H11.3839C11.3839 4.68389 10.1422 3.44218 7.88613 3.44218V4.84128ZM10.28 8.64896C10.1456 8.52679 9.96894 8.46163 9.78738 8.46724C9.60582 8.47285 9.43354 8.5488 9.30692 8.67904L7.63289 10.4006C7.22994 10.3237 6.41986 10.0712 5.58599 9.23939C4.75212 8.40482 4.49958 7.59263 4.42473 7.19249L6.14493 5.51775C6.27534 5.39122 6.3514 5.21892 6.35701 5.0373C6.36263 4.85569 6.29736 4.67902 6.17502 4.54467L3.59016 1.70238C3.46777 1.56762 3.29766 1.48587 3.11597 1.47451C2.93428 1.46315 2.75531 1.52306 2.61708 1.64152L1.09905 2.94339C0.9781 3.06478 0.905912 3.22633 0.896175 3.3974C0.885681 3.57229 0.685609 7.71506 3.89796 10.9288C6.70038 13.7305 10.2107 13.9355 11.1775 13.9355C11.3188 13.9355 11.4056 13.9313 11.4287 13.9299C11.5997 13.9203 11.7612 13.8478 11.882 13.7263L13.1832 12.2076C13.3017 12.0695 13.3617 11.8905 13.3505 11.7088C13.3393 11.5272 13.2577 11.357 13.123 11.2345L10.28 8.64896Z" fill="#171717"/>
</svg>
