<svg viewBox="0 0 542 60" fill="none" xmlns="http://www.w3.org/2000/svg">
<path d="M531.089 8.42013C515.88 6.23763 488.112 10.2496 460.871 17.901C464.991 12.493 462.387 8.41855 452.045 6.93445C436.837 4.75195 409.069 8.76393 381.828 16.4153C385.948 11.0073 383.344 6.93288 373.002 5.44878C357.794 3.26628 330.026 7.27825 302.785 14.9296C306.905 9.52165 304.301 5.44722 293.959 3.96312C278.751 1.78062 250.983 5.79258 223.742 13.444C227.862 8.03598 225.258 3.96155 214.916 2.47745C199.707 0.294944 171.94 4.30691 144.698 11.9583C148.819 6.5503 146.215 2.47587 135.873 0.991773C114.875 -2.02158 69.9596 6.76702 35.5556 20.628C1.15161 34.4889 -9.69595 48.1663 11.3024 51.1797C26.511 53.3622 54.2784 49.3502 81.52 41.6988C77.3999 47.1068 80.0036 51.1813 90.3455 52.6654C105.554 54.8479 133.321 50.8359 160.563 43.1845C156.443 48.5925 159.047 52.6669 169.389 54.151C184.597 56.3335 212.365 52.3215 239.606 44.6702C235.486 50.0782 238.09 54.1526 248.432 55.6367C263.64 57.8192 291.408 53.8072 318.649 46.1558C314.529 51.5638 317.133 55.6383 327.475 57.1224C342.683 59.3049 370.451 55.2929 397.692 47.6415C393.572 53.0495 396.176 57.1239 406.518 58.608C427.516 61.6214 472.431 52.8328 506.835 38.9718C541.239 25.1109 552.108 11.4365 531.089 8.42013Z" fill="#8D1A8F"/>
</svg>
