<svg viewBox="0 0 194 126" fill="none" xmlns="http://www.w3.org/2000/svg">
<path d="M119.263 -1.60408C122.616 -1.60408 125.969 -2.16291 129.322 -2.16291C134.91 -2.72174 140.498 -4.39823 145.528 -6.07473C149.998 -8.31005 153.91 -9.98654 158.381 -12.7807C167.322 -18.9278 174.028 -25.6338 180.175 -35.1339C186.322 -45.7517 191.352 -55.8106 193.587 -67.5461C196.94 -20.0455 172.352 30.8081 127.645 50.926C125.969 88.3676 158.381 117.986 193.587 125.25C167.322 126.927 141.616 121.339 118.145 107.368C98.586 95.6324 84.6152 78.8675 74.5563 59.3084C55.5561 58.7496 37.6735 66.5732 24.2616 79.9852C11.9673 92.8383 4.70249 108.486 0.790674 125.25C-3.12114 77.191 22.5851 26.8963 66.7327 6.21955C66.7327 -11.663 60.5855 -28.9868 47.7324 -42.3987C34.8793 -55.2518 18.6732 -64.1931 0.790674 -67.5461C25.938 -69.7814 50.5266 -63.6343 72.8798 -51.8988C73.9975 -51.34 74.5563 -50.2223 75.674 -49.6635C95.233 -38.4869 110.321 -21.722 119.263 -1.60408Z" fill="white"/>
</svg>
