<svg  viewBox="0 0 131 101" fill="none" xmlns="http://www.w3.org/2000/svg">
<path d="M66.4624 62.4546C84.0922 83.2755 99.4575 97.8543 102.369 96.1755C105.281 94.4966 94.7485 77.1503 78.1444 55.737C108.374 53.2901 131.061 49.3888 130.798 46.447C130.534 43.5051 107.408 42.513 77.0846 43.9114C89.6499 20.6458 96.9719 2.16565 93.8284 0.871332C90.6503 -0.420792 78.0918 15.9313 64.3376 38.7451C46.7078 17.9242 31.3425 3.34539 28.4307 5.02424C25.5188 6.70309 36.0515 24.0494 52.6556 45.4627C22.4259 47.9096 -0.261367 51.8109 0.00227431 54.7528C0.265916 57.6946 23.3917 58.6867 53.7154 57.2883C41.1155 80.5562 33.7935 99.0363 36.9716 100.328C40.1497 101.621 52.7402 85.2372 66.4624 62.4546Z" fill="#EE8BFF"/>
</svg>
