<svg  viewBox="0 0 104 104" fill="none" xmlns="http://www.w3.org/2000/svg">
<path d="M102.881 69.0007C94.5171 73.1499 84.7587 73.9798 75.5579 71.4902C68.8664 69.5539 63.0114 65.4047 59.108 59.5958C77.5096 64.2982 95.9111 52.1271 103.439 35.8068C102.324 33.3172 101.487 30.5511 100.372 28.0615C99.5357 29.7212 98.6993 31.3809 98.1416 33.0406C97.8628 33.5938 97.3052 33.8705 97.0264 34.4237C90.6137 46.8714 76.3943 55.1699 62.4538 51.8505C69.7029 48.2545 74.4427 41.3391 77.2308 34.1471C78.9036 29.9978 79.4613 25.2954 79.7401 20.8695C79.7401 15.3372 78.6248 9.52823 76.952 4.27253C74.4427 3.16606 71.9334 2.0596 69.1453 0.953135C76.1155 15.0606 73.885 35.2535 59.6657 44.1053C64.4055 25.8486 51.8589 7.86854 35.6879 0.399902C33.1786 1.50637 30.3905 2.33621 27.8811 3.44268C35.9667 6.76207 43.4946 12.0178 48.2344 19.763C52.1377 26.1252 53.5318 33.5938 51.8589 40.7859C49.9073 37.7431 47.9556 34.9769 45.1675 32.764C44.331 32.2108 43.4946 31.6575 42.6582 30.8277C30.9481 22.5292 16.4499 22.2526 3.62455 26.6784C3.06693 29.4446 1.39406 31.6575 0.557623 34.4237C14.777 27.5083 34.8514 29.7212 44.0522 43.8286C34.8514 41.6157 25.093 43.2754 16.7287 48.5311C9.20078 53.2336 3.90336 59.8724 0 67.6176C0.836434 70.3838 1.95168 72.8733 3.06693 75.3629C6.41266 67.0644 11.7101 59.8724 19.5168 55.1699C20.3532 54.8933 21.1897 54.34 22.0261 53.7868C27.8811 51.0207 34.5726 49.9142 40.7065 51.5739C37.6395 53.5102 34.8514 55.4465 32.6209 58.2127C32.0633 59.0425 31.5057 59.8724 30.6693 60.7022C22.3049 72.3201 22.0261 86.7041 26.4871 99.4285C29.2752 100.258 31.5057 101.641 34.2938 102.471C27.0447 88.3638 29.554 68.1709 43.7734 59.3191C40.7065 70.937 44.6098 83.1081 52.6954 91.9598C53.5318 92.7897 54.3682 93.6195 55.2047 94.4494C58.8292 98.0454 63.2902 100.812 67.7512 103.024C70.2605 101.918 73.0486 101.088 75.5579 99.9817C60.5021 94.726 47.6768 78.9589 51.5801 62.6385C54.6471 67.8942 59.3869 72.0435 64.6843 75.0863C65.7995 75.6395 66.6359 75.9161 67.7512 76.4693C77.7884 80.6186 89.2197 80.342 99.5357 76.746C100.651 74.2564 102.045 71.7669 102.881 69.0007Z" fill="#FDE047"/>
</svg>
